<?xml version="1.0" standalone="no"?>
<svg xmlns="http://www.w3.org/2000/svg" viewBox="0 0 41 71" width="41" height="71"><g fill="#4ad0ff" color="#4ad0ff" transform="translate(2.709 0) scale(0.8333334) "><svg width="42.0" height="42.0" x="0.0" y="0.0" viewBox="0 0 42 42"><path fill="currentColor" fill-rule="nonzero" d="M21 41.41L41.41.59H.59L21 41.41zm0-7.61l-11.5-23h15.4l-1.7 3.4H15l6 12 9.4-18.8H7.8L6.1 4h29.8L21 33.8z"></path></svg></g><line x1="3.7580000000000027" y1="41" x2="36.658" y2="41" stroke="#0019ff" stroke-linecap="round"></line><path fill="#0019ff" fill-rule="nonzero" d="M4.42 23.76L4.42 23.76Q3.17 23.76 2.16 23.50Q1.15 23.23 0.58 22.66Q0 22.08 0 21.14L0 21.14Q0 20.47 0.29 19.97Q0.58 19.46 1.03 19.09Q1.49 18.72 1.99 18.48L1.99 18.48Q1.32 18.29 0.98 17.87Q0.65 17.45 0.65 16.99L0.65 16.99Q0.65 16.22 1.06 15.67Q1.46 15.12 2.18 14.47L2.18 14.47Q1.39 13.87 0.98 12.94Q0.58 12.00 0.58 10.34L0.58 10.34Q0.58 8.71 1.02 7.62Q1.46 6.53 2.34 5.96Q3.22 5.40 4.49 5.40L4.49 5.40Q5.62 5.40 6.30 5.78Q6.98 6.17 7.34 6.94L7.34 6.94Q7.46 6.74 7.99 6.28Q8.52 5.81 9.22 5.50L9.22 5.50L9.60 5.33L10.25 6.98Q9.94 7.03 9.42 7.21Q8.90 7.39 8.46 7.57Q8.02 7.75 7.90 7.87L7.90 7.87Q8.06 8.28 8.20 9.05Q8.33 9.82 8.33 10.42L8.33 10.42Q8.33 11.83 7.97 12.91Q7.61 13.99 6.78 14.60Q5.95 15.22 4.49 15.22L4.49 15.22Q4.18 15.22 3.82 15.17Q3.46 15.12 3.17 15.05L3.17 15.05Q3.02 15.26 2.87 15.55Q2.71 15.84 2.71 16.10L2.71 16.10Q2.71 16.37 2.99 16.52Q3.26 16.68 3.86 16.73L3.86 16.73L6.02 16.92Q7.66 17.06 8.45 17.90Q9.24 18.74 9.24 20.30L9.24 20.30Q9.24 21.43 8.71 22.21Q8.18 22.99 7.12 23.38Q6.05 23.76 4.42 23.76ZM4.61 21.74L4.61 21.74Q5.98 21.74 6.62 21.42Q7.27 21.10 7.27 20.38L7.27 20.38Q7.27 19.94 7.12 19.66Q6.96 19.37 6.55 19.20Q6.14 19.03 5.38 18.96L5.38 18.96L3.19 18.77Q2.93 19.03 2.69 19.30Q2.45 19.56 2.30 19.86Q2.16 20.16 2.16 20.50L2.16 20.50Q2.16 21.12 2.69 21.43Q3.22 21.74 4.61 21.74ZM4.49 13.42L4.49 13.42Q5.04 13.42 5.36 13.21Q5.69 13.01 5.86 12.61Q6.02 12.22 6.08 11.64Q6.14 11.06 6.14 10.34L6.14 10.34Q6.14 9.62 6.08 9.04Q6.02 8.45 5.87 8.03Q5.71 7.61 5.39 7.39Q5.06 7.18 4.51 7.18L4.51 7.18Q3.98 7.18 3.64 7.39Q3.29 7.61 3.12 8.00Q2.95 8.40 2.88 8.99Q2.81 9.58 2.81 10.34L2.81 10.34Q2.81 10.99 2.87 11.56Q2.93 12.12 3.11 12.53Q3.29 12.94 3.62 13.18Q3.96 13.42 4.49 13.42ZM15 19.66L15 19.66Q13.37 19.66 12.48 19.02Q11.59 18.38 11.24 17.15Q10.90 15.91 10.90 14.11L10.90 14.11L10.90 10.94Q10.90 9.10 11.26 7.87Q11.62 6.65 12.52 6.02Q13.42 5.40 15 5.40L15 5.40Q16.75 5.40 17.58 6.12Q18.41 6.84 18.67 8.20Q18.94 9.55 18.94 11.45L18.94 11.45L18.94 12.58L13.46 12.58L13.46 15.36Q13.46 16.20 13.62 16.73Q13.78 17.26 14.12 17.51Q14.47 17.76 15.02 17.76L15.02 17.76Q15.60 17.76 15.90 17.48Q16.20 17.21 16.31 16.69Q16.42 16.18 16.42 15.48L16.42 15.48L16.42 14.64L18.91 14.64L18.91 15.17Q18.91 17.26 18.02 18.46Q17.14 19.66 15 19.66ZM13.46 10.44L13.46 11.18L16.42 11.18L16.42 9.94Q16.42 9.07 16.32 8.48Q16.22 7.90 15.92 7.60Q15.62 7.30 14.98 7.30L14.98 7.30Q14.35 7.30 14.03 7.58Q13.70 7.87 13.58 8.56Q13.46 9.24 13.46 10.44L13.46 10.44ZM25.10 19.66L25.10 19.66Q23.47 19.66 22.58 19.02Q21.70 18.38 21.35 17.15Q21 15.91 21 14.11L21 14.11L21 10.94Q21 9.10 21.36 7.87Q21.72 6.65 22.62 6.02Q23.52 5.40 25.10 5.40L25.10 5.40Q26.86 5.40 27.68 6.12Q28.51 6.84 28.78 8.20Q29.04 9.55 29.04 11.45L29.04 11.45L29.04 12.58L23.57 12.58L23.57 15.36Q23.57 16.20 23.72 16.73Q23.88 17.26 24.23 17.51Q24.58 17.76 25.13 17.76L25.13 17.76Q25.70 17.76 26.00 17.48Q26.30 17.21 26.41 16.69Q26.52 16.18 26.52 15.48L26.52 15.48L26.52 14.64L29.02 14.64L29.02 15.17Q29.02 17.26 28.13 18.46Q27.24 19.66 25.10 19.66ZM23.57 10.44L23.57 11.18L26.52 11.18L26.52 9.94Q26.52 9.07 26.42 8.48Q26.33 7.90 26.03 7.60Q25.73 7.30 25.08 7.30L25.08 7.30Q24.46 7.30 24.13 7.58Q23.81 7.87 23.69 8.56Q23.57 9.24 23.57 10.44L23.57 10.44ZM33.98 19.44L31.42 19.44L31.42 0L33.98 0L33.98 11.59L37.73 5.59L40.42 5.59L37.15 11.02L40.32 19.46L37.75 19.46L35.16 12.36L33.98 14.14L33.98 19.44Z" transform="translate(0, 47)"></path></svg>